<svg width="200" height="200" viewBox="0 0 200 200" fill="none" xmlns="http://www.w3.org/2000/svg">
<circle cx="100" cy="100" r="98" fill="#ECECEC" stroke="#1976D2" stroke-width="4"/>
<path d="M41.7783 105.034L35.3672 105.17C34.5124 105.17 34.085 104.853 34.085 104.218C34.085 103.583 34.4269 102.903 35.1107 102.177C35.8801 101.361 36.6921 100.952 37.547 100.952H43.958C52.5916 86.0771 63.1058 71.3832 75.5006 56.8708C74.9877 56.1451 74.7313 55.3742 74.7313 54.5578C74.7313 53.6508 75.2014 52.7438 76.1417 51.8367C77.082 50.9297 78.4925 50.4762 80.373 50.4762C82.3391 50.4762 83.3221 51.4286 83.3221 53.3333C83.3221 53.9683 83.1939 54.6032 82.9375 55.2381C84.4761 59.4104 86.314 66.2585 88.451 75.7823C90.5881 85.2154 92.1267 93.5601 93.067 100.816C95.8879 100.907 97.2983 101.406 97.2983 102.313L93.4517 104.49C93.4517 104.943 93.7509 107.392 94.3492 111.837C96.4008 125.714 97.4265 134.649 97.4265 138.639C97.4265 139.546 96.7854 140.408 95.5032 141.225C94.3065 141.95 93.1525 142.313 92.0412 142.313C91.0155 142.313 90.5026 141.95 90.5026 141.225V139.592C90.5026 136.145 90.1606 130.159 89.4768 121.633C88.7929 113.016 88.2801 107.347 87.9381 104.626C61.7809 104.898 48.1039 105.034 46.9071 105.034C39.2993 119.819 34.8543 131.882 33.5721 141.225C33.4866 142.222 32.6745 142.721 31.1359 142.721C29.5972 142.721 28.7851 142.585 28.6996 142.313C28.6142 142.132 28.5714 141.95 28.5714 141.769L28.8279 139.592C30.5375 129.433 34.8543 117.914 41.7783 105.034ZM87.5535 100.952C86.6987 93.6962 85.2455 85.941 83.1939 77.6871C81.2279 69.4331 79.6465 63.356 78.4497 59.4558C73.2354 65.3515 67.7646 72.2449 62.0373 80.1361C56.3956 87.9365 51.9505 94.966 48.7023 101.224L87.5535 100.952Z" fill="#1976D2"/>
<path d="M152.195 57.551L146.169 57.6871C145.741 57.6871 140.484 57.5964 130.398 57.415C127.662 66.3946 125.226 78.8209 123.089 94.6939C142.579 94.6939 154.931 94.5578 160.145 94.2857C160.658 94.2857 160.914 94.6032 160.914 95.2381C160.914 95.7823 160.487 96.4626 159.632 97.2789C158.777 98.0952 157.581 98.6395 156.042 98.9116H122.576C120.439 117.234 119.371 128.617 119.371 133.061C120.054 133.152 120.396 134.104 120.396 135.918C120.396 140.544 118.986 142.857 116.165 142.857C114.113 142.857 113.088 141.859 113.088 139.864C113.259 138.141 114.584 124.49 117.063 98.9116H115.524C114.669 98.9116 114.242 98.5941 114.242 97.9592C114.242 97.3243 114.584 96.644 115.267 95.9184C115.951 95.1928 116.721 94.7846 117.575 94.6939C119.2 80.0907 121.208 67.4376 123.602 56.7347H116.806C114.925 56.644 113.985 56.2812 113.985 55.6463C113.985 55.1927 114.541 54.7392 115.652 54.2857C116.763 53.7415 118.003 53.4694 119.371 53.4694H124.371C125.055 49.5692 127.448 47.619 131.552 47.619C132.834 47.619 133.475 48.0726 133.475 48.9796C133.475 49.3424 132.877 50.7937 131.68 53.3333H133.86L147.579 53.4694L169.505 53.3333C170.787 53.3333 171.429 54.0136 171.429 55.3741C171.429 56.3719 170.958 57.6417 170.018 59.1837C169.163 60.6349 168.437 61.3605 167.838 61.3605C167.24 61.3605 166.513 60.8163 165.659 59.7279C164.889 58.5488 163.906 57.9138 162.709 57.8231C161.513 57.6417 158.008 57.551 152.195 57.551Z" fill="#1976D2"/>
</svg>
