<svg width="283" height="283" viewBox="0 0 283 283" fill="none" xmlns="http://www.w3.org/2000/svg">
<path d="M137.385 13.9277V26.8613H125.921H114.457V30.9766V35.0918H125.921H137.385V48.0254V60.959H141.794H146.203V48.0254V35.0918H157.667H169.131V30.9766V26.8613H157.667H146.203V13.9277V0.994146H141.794H137.385V13.9277Z" fill="#7198A5"/>
<path d="M62.7227 47.1435V66.25H45.0859H27.4492V71.835V77.4199L44.9684 77.5375L62.4287 77.7139L62.6051 96.9967L62.7227 116.279L68.7779 116.103L74.7744 115.927L74.9508 96.6439L75.0684 77.4199H92.4111H109.754V71.835V66.25H92.4111H75.0684V47.1435V28.0371H68.8955H62.7227V47.1435Z" fill="#EB9129"/>
<path d="M207.932 47.1436V66.25H190.589H173.246V72.1289V78.0078H190.589H207.932V97.1143V116.221H214.398H220.865V97.1143V78.0078H238.502H256.197L256.021 72.2465L255.845 66.5439L238.384 66.3676L220.865 66.25V47.1436V28.0371H214.398H207.932V47.1436Z" fill="#5B879B"/>
<path d="M134.269 90.765C134.034 90.9414 133.857 100.642 133.857 112.223V133.27H114.457H94.9979L95.1742 140.736L95.3506 148.261L114.633 148.437L133.857 148.555V169.719V190.883H141.5H149.143V169.719V148.555H168.543H187.943V140.912V133.27H168.543H149.143V111.812V90.3535H141.912C137.914 90.3535 134.445 90.5299 134.269 90.765Z" fill="#E8762D"/>
<path d="M247.908 122.394V135.621H236.15H224.393V140.912V146.203H236.15H247.908V159.431V172.658H253.493H259.078V159.431V146.203H270.836H282.594V140.912V135.621H270.836H259.078V122.394V109.166H253.493H247.908V122.394Z" fill="#5C6591"/>
<path d="M23.9219 123.863V136.797H12.1641H0.40625V140.912V145.027H12.1641H23.9219V157.961V170.953L27.9195 170.777L31.8584 170.601L32.0348 157.843L32.1523 145.027L43.7926 144.91L55.374 144.733L55.5504 140.736L55.7268 136.797H43.9689H32.1523L32.0348 123.981L31.8584 111.224L27.9195 111.047L23.9219 110.871V123.863Z" fill="#7199A6"/>
<path d="M62.1348 183.828V202.641H44.792H27.4492V208.52V214.398H44.792H62.1348V233.505V252.611H68.6016H75.0684V233.505V214.398H92.4111H109.754V208.52V202.641H92.4111H75.0684V183.828V165.016H68.6016H62.1348V183.828Z" fill="#C52037"/>
<path d="M207.932 183.828V202.641H190.589H173.246V208.52V214.398H190.589H207.932V233.505V252.611H214.398H220.865V233.505V214.398H238.502H256.197L256.021 208.637L255.845 202.935L238.384 202.758L220.865 202.641V183.828V165.016H214.398H207.932V183.828Z" fill="#1F457E"/>
<path d="M136.209 231.741V244.969H124.451H112.693V250.26V255.551H124.451H136.209V268.778V282.006H141.794H147.379V268.778V255.551H159.137H170.895V250.26V244.969H159.137H147.379V231.741V218.514H141.794H136.209V231.741Z" fill="#5C6692"/>
</svg>
